<svg id="Capa_1" enable-background="new 0 0 512 512" height="512" viewBox="0 0 512 512" width="512" xmlns="http://www.w3.org/2000/svg"><g><path d="m512 167.266v319.462c0 5.69-4.612 10.302-10.302 10.302h-88.637c-.546-42.876-21.139-73.545-32.667-87.39-2.555 1.082-5.305 1.659-8.066 1.659-6.222 0-12.269-2.926-16.163-7.809-3.904-4.893-5.336-11.219-3.946-17.338 5.573-24.395-4.615-52.498-12.239-68.878-18.966 10.621-39.744 17.225-61.378 19.47-15.175-9.416-32.852-14.587-51.19-14.587h-120.84c-31.493 0-59.514-19.996-69.754-49.778l-27.485-80.025c-4.255-12.383 2.483-25.837 14.948-29.834l144.341-46.342c3.332-1.07 5.892-3.757 6.8-7.137l4.169-15.523c8.86-33.017 36.365-57.7 70.155-62.923l96.014-14.865c8.499-1.308 17.173-.927 25.518 1.143l12.115 2.988c34.367 8.509 63.737 30.741 81.261 61.512l45.998 80.797c.883 1.553 1.348 3.309 1.348 5.096z" fill="#fac574"/><path d="m297.096 105.174c-7.933 29.007-21.166 104.594 28.739 176.693 6.341 9.161 18.518 12.139 28.466 7.123 26.475-13.35 76.174-46.304 98.587-113.062 8.828-26.296-6.562-54.789-33.605-60.958-.754-.172-1.523-.332-2.306-.481-30.899-5.846-62.91-47.643-96.34-35.474-11.651 4.242-20.27 14.199-23.541 26.159z" fill="#e8b66b"/><path d="m512 167.267v319.462c0 5.69-4.612 10.302-10.302 10.302h-88.637c-.134-10.57-1.483-20.398-3.626-29.412 119.511-84.3 55.207-386.246 55.207-386.246l46.008 80.796c.885 1.553 1.35 3.31 1.35 5.098z" fill="#e8b66b"/><g><path d="m335.497 318.344c-2.777 0-5.459-1.5-6.843-4.127-1.989-3.776-.54-8.448 3.235-10.437 7.442-3.92 14.56-8.554 21.158-13.774 3.345-2.648 8.204-2.081 10.853 1.266 2.648 3.347 2.081 8.206-1.266 10.853-7.342 5.808-15.263 10.965-23.544 15.327-1.147.605-2.38.892-3.593.892z" fill="#d7a964"/></g><path d="m428.514 497.03h-39.187c-4.893 0-9.112-3.442-10.093-8.236l-5.946-29.055c-.687-3.358-4.401-5.121-7.437-3.53l-11.768 6.166c-2.967 1.556-6.603-.093-7.407-3.358-6.686-27.186-13.578-47.12-19.738-61.574 7.005-32.574-3.06-64.881-8.324-78.541-16.905 6.768-35.129 10.518-53.322 10.951-11.827-5.007-24.683-7.685-37.88-7.685h34.388c30.339 0 59.689-9.529 84.073-26.898 0 0 31.4 50.551 21.418 94.323-.979 4.296 3.637 7.716 7.5 5.615l5.46-2.967c2.04-1.113 4.564-.731 6.171.948 9.724 10.146 41.453 47.532 42.092 103.841z" fill="#f9e1c2"/><path d="m331.704 409.431c-13.96-37.391-25.639-47.162-25.639-47.162-18.283-25.196-47.523-40.105-78.651-40.105h34.389c21.244 0 42.003-4.674 60.905-13.444.01 0 .01.01.01.01s25.072 51.341 8.986 100.701z" fill="#fcd79f"/><path d="m428.515 497.028h-39.187c-4.894 0-9.113-3.443-10.093-8.238l-1.163-5.69c17.468-5.52 32.171-14.558 44.49-26.289 3.487 12.008 5.788 25.462 5.953 40.217z" fill="#fcd79f"/><path d="m2.693 197.486 24.271 46.192s56.496-17.595 39.135-94.585l-49.566 15.184c-13.999 4.289-20.651 20.248-13.84 33.209z" fill="#81635e"/><path d="m26.962 243.678-11.69-22.255c28.425-17.54 28.425-46.894 25.268-64.506l25.557-7.821c17.365 76.99-39.135 94.582-39.135 94.582z" fill="#6c524e"/><g><ellipse cx="209.089" cy="114.166" fill="#81635e" rx="10.963" ry="14.132"/></g><g><g><path d="m285.852 77.755c-7.933 29.007-21.166 104.594 28.739 176.693 6.341 9.161 18.518 12.139 28.466 7.123 26.475-13.35 76.174-46.304 98.587-113.062 8.828-26.296-6.562-54.789-33.605-60.958-.754-.172-1.523-.332-2.306-.481-30.899-5.846-62.91-47.643-96.34-35.474-11.65 4.241-20.27 14.199-23.541 26.159z" fill="#e8b66b"/><path d="m408.044 87.55c26.999 6.167 42.436 34.6 33.634 60.858-22.396 66.816-72.124 99.801-98.619 113.161-9.946 5.014-22.131 2.033-28.477-7.13-18.716-27.043-28.549-54.57-33.099-79.941 22.781 21.265 53.414 45.563 98.75 7.718 33.078-27.61 28.735-71.047 22.689-95.779.939.248 1.878.454 2.806.629.787.15 1.559.311 2.316.484z" fill="#d7a964"/></g></g></g></svg>